<svg xmlns="http://www.w3.org/2000/svg" viewBox="0 0 24 24" fill="none" stroke="#c2703e" stroke-width="1.8" stroke-linecap="round" stroke-linejoin="round">
  <path d="M8 16l-1.447.724a1 1 0 0 0-.553.894V20h12v-2.382a1 1 0 0 0-.553-.894L16 16"/>
  <path d="M8.5 16h7a1 1 0 0 0 .916-.6L18 12H6l1.584 3.4a1 1 0 0 0 .916.6z"/>
  <path d="M6 12V9c0-1 .6-3 3-3"/>
  <path d="M18 12V9c0-1-.6-3-3-3"/>
  <path d="M9 6V4a1 1 0 0 1 1-1h4a1 1 0 0 1 1 1v2"/>
  <line x1="12" y1="6" x2="12" y2="3"/>
  <line x1="10" y1="4" x2="14" y2="4"/>
</svg>
