<svg xmlns="http://www.w3.org/2000/svg" viewBox="0 0 64 64">
  <!-- dumpling body -->
  <ellipse cx="32" cy="38" rx="26" ry="18" fill="#f5e6d0" stroke="#c2703e" stroke-width="2"/>
  <!-- crimped top edge -->
  <path d="M8 32 Q12 20 20 16 Q26 13 32 14 Q38 13 44 16 Q52 20 56 32" fill="none" stroke="#c2703e" stroke-width="2" stroke-linecap="round"/>
  <!-- crimp details -->
  <path d="M14 28 Q18 22 22 20" fill="none" stroke="#d4a574" stroke-width="1.5" stroke-linecap="round"/>
  <path d="M22 22 Q28 17 32 17" fill="none" stroke="#d4a574" stroke-width="1.5" stroke-linecap="round"/>
  <path d="M32 17 Q36 17 42 22" fill="none" stroke="#d4a574" stroke-width="1.5" stroke-linecap="round"/>
  <path d="M42 22 Q46 24 50 28" fill="none" stroke="#d4a574" stroke-width="1.5" stroke-linecap="round"/>
  <!-- left eye -->
  <ellipse cx="24" cy="36" rx="2.5" ry="3" fill="#3d2b1f"/>
  <ellipse cx="23.5" cy="35" rx="1" ry="1" fill="white" opacity="0.6"/>
  <!-- right eye -->
  <ellipse cx="40" cy="36" rx="2.5" ry="3" fill="#3d2b1f"/>
  <ellipse cx="39.5" cy="35" rx="1" ry="1" fill="white" opacity="0.6"/>
  <!-- smile -->
  <path d="M28 42 Q32 46 36 42" fill="none" stroke="#3d2b1f" stroke-width="1.5" stroke-linecap="round"/>
  <!-- blush -->
  <ellipse cx="20" cy="40" rx="3" ry="2" fill="#e8a0a0" opacity="0.4"/>
  <ellipse cx="44" cy="40" rx="3" ry="2" fill="#e8a0a0" opacity="0.4"/>
</svg>
