<svg xmlns="http://www.w3.org/2000/svg" viewBox="0 0 144.58 42.02"><defs><style>.cls-1{fill:#002965;}</style></defs><g id="레이어_2" data-name="레이어 2"><g id="Layer_1" data-name="Layer 1"><rect class="cls-1" x="51.61" y="1.51" width="4.77" height="12.09"/><polygon class="cls-1" points="32.68 14.71 56.44 14.71 56.44 24.24 51.47 24.24 51.47 17.68 32.68 17.68 32.68 14.71"/><path class="cls-1" d="M32,7.31C32,3.75,35.58.87,40,.87s8,2.88,8,6.44-3.59,6.45-8,6.45S32,10.87,32,7.31Zm8,3.23a3.33,3.33,0,0,0,3.42-3.23,3.43,3.43,0,0,0-6.84,0A3.33,3.33,0,0,0,40,10.54Z"/><polygon class="cls-1" points="71.15 1.45 59.57 1.45 59.57 24.18 78.14 24.18 78.14 12.67 79.76 12.67 79.76 24.18 84.77 24.18 84.77 1.45 79.83 1.45 79.83 9.42 78.21 9.42 78.21 1.52 73.27 1.52 73.27 21.21 63.88 21.21 63.88 3.99 71.15 3.99 71.15 1.45"/><polygon class="cls-1" points="107.59 1.44 113.15 1.45 113.15 8.58 116.19 8.58 116.19 11.89 113.15 11.89 113.15 15.64 107.58 15.61 107.59 1.44"/><polygon class="cls-1" points="87.53 16.27 113.22 16.27 113.22 24.11 107.58 24.11 107.58 19.59 87.53 19.59 87.53 16.27"/><polygon class="cls-1" points="116.24 1.38 141.18 1.38 141.18 21.14 143.86 21.14 143.86 24.18 115.34 24.18 115.34 21.14 120.42 21.14 120.42 8.7 125.58 8.7 125.58 21.19 127.68 21.19 127.68 8.63 132.64 8.63 132.64 21.21 136.07 21.21 136.09 4.55 116.28 4.57 116.24 1.38"/><rect class="cls-1" x="88.66" y="1.38" width="14.75" height="2.82"/><path class="cls-1" d="M106,5H86l0,3h3.45a4,4,0,0,0-1.11,2.68c0,2.87,3.44,5.19,7.69,5.19s7.69-2.32,7.69-5.19a4,4,0,0,0-1.11-2.68H106Zm-7,5.64a3,3,0,1,1-6,0,3.11,3.11,0,0,1,1.51-2.68h3A3.1,3.1,0,0,1,99,10.62Z"/><path class="cls-1" d="M30.05,2H17.74V0h-5V2H.51l0,3H4.1A3,3,0,0,0,2.7,7.18c0,2.31,4.42,4.41,9.39,5v.55H0v2.9H4.93C3.1,16.71,2,18,2,19.47c0,3.35,5.9,6.06,13.19,6.06s13.19-2.71,13.19-6.06c0-1.44-1.1-2.76-2.92-3.8H30v-2.9H17.89v-.54c5-.61,9.38-2.73,9.38-5.05A3,3,0,0,0,25.94,5h4.11ZM15.2,22.52C10.67,22.52,7,21,7,19.2s3.68-3.33,8.21-3.33,8.21,1.49,8.21,3.33S19.73,22.52,15.2,22.52Zm0-13c-3.74,0-6.56-.78-6.56-2.3S11.29,5,15,5s6.24.79,6.24,2.31S18.9,9.47,15.15,9.47Z"/><path class="cls-1" d="M6.17,34.84V30.18H8.6V41.83H6.17v-5.2H3.38v5.2H.94V30.18H3.37v4.66Z"/><path class="cls-1" d="M14.33,40.28C13,40.28,12.78,39,12.78,36s.18-4.27,1.55-4.28S15.88,33,15.88,36,15.7,40.28,14.33,40.28Zm0,1.74c4,0,4-3,4-6s0-6-4-6-4,2.94-4,6S10.31,42,14.33,42Z"/><path class="cls-1" d="M20.12,41.83V30.17h3.29l3.11,8.07h0V30.17h2.28V41.82H25.61L22.43,33.3h0v8.53Z"/><path class="cls-1" d="M36.21,33.75c0-1.08-.16-2-1.45-2-1.52,0-1.52,2.05-1.52,4.31,0,3.64.36,4.29,1.75,4.29a3.87,3.87,0,0,0,1.21-.23V37.51H34.87V35.72h3.76v5.91a22.13,22.13,0,0,1-3.29.38c-4.1,0-4.57-1.69-4.57-6.11,0-2.94.15-5.93,4.13-5.93,2.39,0,3.87,1.34,3.73,3.78Z"/><path class="cls-1" d="M40.66,41.82V30.17h2.43V41.82Z"/><path class="cls-1" d="M50.51,30.16h2.68l-3.26,5.23,3.27,6.42H50.45l-2.79-6h0v6H45.19V30.16h2.43v5h0Z"/><path class="cls-1" d="M68.29,30.15v8.27c0,1.74-1,3.58-4,3.58-2.69,0-4-1.38-4-3.58V30.16h2.44v8.1c0,1.44.61,2,1.5,2,1.07,0,1.55-.71,1.55-2v-8.1Z"/><path class="cls-1" d="M70.6,41.81V30.15h3.29L77,38.22h0V30.15H79.3V41.8H76.09l-3.18-8.53h0v8.53Z"/><path class="cls-1" d="M81.65,41.8V30.15h2.44V41.8Z"/><path class="cls-1" d="M85.8,30.15h2.53l1.82,8.47h0l2-8.47h2.4L91.53,41.8H88.68Z"/><path class="cls-1" d="M96.16,41.8V30.14h6.36v1.79H98.6v2.87h3.62V36.6H98.6V40h4.05v1.8Z"/><path class="cls-1" d="M107.18,31.93h1.08c.77,0,1.24.42,1.24,1.54,0,.74-.27,1.71-1.24,1.71h-1.08Zm0,5h.63c1.87,0,1.74,1.18,1.74,2.56a5.37,5.37,0,0,0,.26,2.26h2.39a15.68,15.68,0,0,1-.28-3.42,2.06,2.06,0,0,0-2.11-2.29v0c1.58-.26,2.16-1.37,2.16-2.86,0-2-1.06-3-2.73-3h-4.5V41.8h2.44Z"/><path class="cls-1" d="M117.08,42c-3,0-3.58-1.77-3.45-3.79h2.43c0,1.12,0,2.05,1.39,2.05a1.16,1.16,0,0,0,1.23-1.32c0-2.1-4.91-2.23-4.91-5.7,0-1.82.87-3.28,3.84-3.28,2.37,0,3.55,1.07,3.39,3.5h-2.37c0-.87-.15-1.75-1.13-1.75a1.13,1.13,0,0,0-1.26,1.24c0,2.21,4.91,2,4.91,5.68C121.15,41.63,118.94,42,117.08,42Z"/><path class="cls-1" d="M122.93,41.79V30.13h2.44V41.79Z"/><path class="cls-1" d="M134.83,30.13v1.94h-2.72v9.71h-2.44V32.07H127V30.13Z"/><path class="cls-1" d="M138.88,37.75l-3-7.62h2.66l1.75,4.92,1.85-4.92h2.49l-3.26,7.62v4h-2.44Z"/></g></g></svg>